<svg width="365" height="65" viewBox="0 0 365 65" fill="none" xmlns="http://www.w3.org/2000/svg">
<path d="M132.186 1.82639C141.497 1.82639 146.759 7.29309 146.759 14.7238C146.759 19.6589 143.79 23.6432 139.81 24.9942C144.465 26.1451 148.246 30.3984 148.246 36.3404C148.246 44.1089 142.441 49.7195 133.467 49.7195H114.982V1.82639H132.186ZM130.767 21.6166C135.017 21.6166 137.585 19.2523 137.585 15.6057C137.585 11.9592 135.223 9.65741 130.711 9.65741H124.15V21.6166H130.767ZM131.711 41.951C136.235 41.951 138.935 39.5867 138.935 35.7337C138.935 31.8808 136.504 29.3163 131.855 29.3163H124.15V41.951H131.711Z" fill="black"/>
<path d="M174.029 46.1355C172.205 49.2629 168.355 50.5952 164.85 50.5952C156.813 50.5952 152.227 44.7219 152.227 37.4601V16.4814H161.225V35.6524C161.225 39.3678 163.1 42.3451 167.299 42.3451C171.28 42.3451 173.548 39.643 173.548 35.79V16.4814H182.522V43.7086C182.526 45.7169 182.639 47.7234 182.859 49.7195H174.298C174.113 48.5339 174.023 47.3354 174.029 46.1355Z" fill="black"/>
<path d="M194.208 4.48991e-06C195.299 0.000140863 196.366 0.32307 197.274 0.928223C198.183 1.53338 198.892 2.39376 199.314 3.4013C199.735 4.40883 199.85 5.51857 199.643 6.59111C199.437 7.66365 198.918 8.65115 198.152 9.42955C197.387 10.208 196.409 10.7425 195.34 10.9662C194.272 11.1898 193.162 11.0924 192.149 10.6864C191.136 10.2804 190.265 9.5837 189.646 8.68395C189.027 7.7842 188.688 6.7215 188.671 5.62934C188.658 4.89402 188.793 4.16359 189.065 3.48071C189.338 2.79783 189.744 2.1762 190.259 1.65211C190.775 1.12803 191.389 0.712009 192.067 0.428346C192.745 0.144684 193.473 -0.000932148 194.208 4.48991e-06ZM189.752 49.7195V16.4814H198.719V49.7195H189.752Z" fill="black"/>
<path d="M205.95 49.7195V0.813141H214.923V49.7195H205.95Z" fill="black"/>
<path d="M253.173 43.7086C253.173 45.9353 253.311 48.3685 253.442 49.7195H244.875C244.653 48.4472 244.54 47.1581 244.537 45.8665C243.05 48.5061 239.676 50.5326 235.22 50.5326C225.771 50.5326 219.022 43.1019 219.022 33.0192C219.022 23.2929 225.571 15.6621 234.951 15.6621C240.688 15.6621 243.387 18.0264 244.325 19.7777V0.813141H253.167L253.173 43.7086ZM236.301 42.4889C240.888 42.4889 244.469 38.98 244.469 32.9691C244.469 26.9583 240.888 23.712 236.301 23.712C231.714 23.712 228.09 27.0896 228.09 33.0317C228.09 38.9737 231.577 42.4889 236.301 42.4889Z" fill="black"/>
<path d="M278.801 30.4672L292.367 49.7195H281.369L272.62 37.016L268.871 40.9378V49.6945H259.904V0.813141H268.877V28.8472L280.351 16.4814H292.099L278.801 30.4672Z" fill="black"/>
<path d="M300.347 4.48991e-06C301.439 0.000140863 302.506 0.32307 303.414 0.928223C304.323 1.53338 305.032 2.39376 305.454 3.4013C305.875 4.40883 305.99 5.51857 305.783 6.59111C305.577 7.66365 305.058 8.65115 304.292 9.42955C303.527 10.208 302.548 10.7425 301.48 10.9662C300.412 11.1898 299.302 11.0924 298.289 10.6864C297.275 10.2804 296.405 9.5837 295.786 8.68395C295.167 7.7842 294.828 6.7215 294.811 5.62934C294.798 4.89402 294.932 4.16359 295.205 3.48071C295.478 2.79783 295.884 2.1762 296.399 1.65211C296.915 1.12803 297.529 0.712009 298.207 0.428346C298.885 0.144684 299.613 -0.000932148 300.347 4.48991e-06ZM295.892 49.7195V16.4814H304.872V49.7195H295.892Z" fill="black"/>
<path d="M309.952 16.4814C313.458 16.4814 315.076 14.1859 315.076 11.2149V6.55502H323.2V16.4814H329.887V24.4563H323.2V38.367C323.2 41.2755 324.55 42.22 327.118 42.22C328.048 42.2304 328.976 42.1402 329.887 41.951V49.413C328.266 50.0101 326.545 50.2863 324.819 50.2261C318.345 50.2261 314.295 46.3732 314.295 39.9557V24.4563H309.952" fill="black"/>
<path d="M364.531 40.1934C362.844 45.9353 357.576 50.7328 349.409 50.7328C340.298 50.7328 332.268 44.1777 332.268 32.9691C332.268 22.3359 340.098 15.4556 348.602 15.4556C358.857 15.4556 365 22.0107 365 32.6814C365 33.9323 364.869 35.3209 364.869 35.4523H341.122C341.322 39.8306 345.034 43.0206 349.49 43.0206C353.677 43.0206 355.97 40.9252 357.051 37.9542L364.531 40.1934ZM356.158 29.3163C356.026 26.0075 353.864 22.7675 348.734 22.7675C346.894 22.6993 345.098 23.3407 343.716 24.5592C342.335 25.7778 341.474 27.4806 341.31 29.3163H356.158Z" fill="black"/>
<path d="M0 2.45187L31.2452 17.7762V49.0502L0 33.7259V2.45187Z" fill="#30F2A2"/>
<path d="M62.8028 2.45187L93.7355 17.7762L62.8028 33.7259V2.45187Z" fill="#30F2A2"/>
<path d="M62.8028 2.45187L31.2452 17.7762V49.0502L62.8028 33.7259V2.45187Z" fill="#14CC80"/>
<path d="M93.7355 17.7762L62.8028 33.726V65L93.7355 49.0502V17.7762Z" fill="#14CC80"/>
</svg>
