<svg width="22" height="22" viewBox="0 0 22 22" fill="none" xmlns="http://www.w3.org/2000/svg">
<g clip-path="url(#clip0)">
<rect width="22" height="22" fill="white"/>
<path fill-rule="evenodd" clip-rule="evenodd" d="M11.05 0C4.97945 0 0.0500488 4.92266 0.0500488 11C0.0500488 15.8619 3.20352 19.981 7.57245 21.4395C8.11942 21.5408 8.32199 21.2032 8.32199 20.9061C8.32199 20.6427 8.31524 19.954 8.30849 19.0356C5.24955 19.6974 4.6013 17.5635 4.6013 17.5635C4.10161 16.2941 3.37908 15.9564 3.37908 15.9564C2.37969 15.2744 3.45336 15.2879 3.45336 15.2879C4.55403 15.3689 5.14151 16.4223 5.14151 16.4223C6.12064 18.1037 7.71426 17.6176 8.34225 17.334C8.44354 16.6249 8.72715 16.1387 9.03777 15.8619C6.59332 15.585 4.02733 14.6397 4.02733 10.426C4.02733 9.22406 4.45274 8.24494 5.16177 7.47514C5.04697 7.19829 4.66883 6.07735 5.26981 4.56477C5.26981 4.56477 6.19492 4.26764 8.29498 5.69244C9.17282 5.44935 10.1114 5.32781 11.05 5.32106C11.9819 5.32781 12.9273 5.44935 13.8051 5.69244C15.9052 4.26764 16.8303 4.56477 16.8303 4.56477C17.4313 6.07735 17.0531 7.19829 16.9383 7.47514C17.6406 8.24494 18.066 9.22406 18.066 10.426C18.066 14.6532 15.4933 15.5783 13.0421 15.8551C13.4337 16.1928 13.7916 16.868 13.7916 17.8944C13.7916 19.3665 13.7781 20.5482 13.7781 20.9128C13.7781 21.2099 13.9739 21.5476 14.5344 21.4395C18.9033 19.981 22.05 15.8619 22.05 11.0068C22.05 4.92942 17.1274 0 11.05 0Z" fill="#181616"/>
</g>
<defs>
<clipPath id="clip0">
<rect width="22" height="22" fill="white"/>
</clipPath>
</defs>
</svg>
