<svg xmlns="http://www.w3.org/2000/svg" version="1.1" xmlns:xlink="http://www.w3.org/1999/xlink" xmlns:svgjs="http://svgjs.com/svgjs" viewBox="0 0 140 140" width="140" height="140"><g transform="matrix(5.833333333333333,0,0,5.833333333333333,0,0)"><path d="M4.591,22.542A2.25,2.25,0,0,1,1.409,19.36L7.773,13l3.182,3.182Z" fill="none" stroke="#000000" stroke-linecap="round" stroke-linejoin="round" stroke-width="1.5"></path><path d="M18.379 5.572L9.364 14.587" fill="none" stroke="#000000" stroke-linecap="round" stroke-linejoin="round" stroke-width="1.5"></path><path d="M20.5,5.572A1.5,1.5,0,0,1,18.379,3.45L21.031.8,23.152,2.92Z" fill="none" stroke="#000000" stroke-linecap="round" stroke-linejoin="round" stroke-width="1.5"></path><path d="M10.49,8.32,8.2,6.025a3.748,3.748,0,0,0-.837-4.019A3.708,3.708,0,0,0,5.123.948,2.993,2.993,0,0,1,1,5.074,3.721,3.721,0,0,0,6.073,8.146L7.649,9.722" fill="none" stroke="#000000" stroke-linecap="round" stroke-linejoin="round" stroke-width="1.5"></path><path d="M14.237,16.31l1.775,1.774a3.75,3.75,0,1,0,2.121-2.121l-2.511-2.511" fill="none" stroke="#000000" stroke-linecap="round" stroke-linejoin="round" stroke-width="1.5"></path><path d="M19.235,19.186a.375.375,0,1,1,0,.53.375.375,0,0,1,0-.53" fill="none" stroke="#000000" stroke-linecap="round" stroke-linejoin="round" stroke-width="1.5"></path></g></svg>