<svg width="359" height="84" viewBox="0 0 359 84" fill="none" xmlns="http://www.w3.org/2000/svg">
<g clip-path="url(#clip0)">
<path d="M122.11 65.1805V45.8591H105.135V65.1805H96.4916V19.3647H105.135V38.2101H122.11V19.3647H130.753V65.1805H122.11Z" fill="black"/>
<path d="M162.439 65.1805H155.576L154.954 62.9135C151.987 64.8436 148.526 65.8715 144.988 65.8727C138.869 65.8727 136.259 61.6761 136.259 55.8962C136.259 49.0865 139.214 46.4734 146.017 46.4734H154.055V42.9604C154.055 39.2484 153.026 37.9419 147.667 37.9419C144.551 37.9635 141.444 38.2969 138.393 38.937L137.365 32.5426C141.104 31.5066 144.964 30.9741 148.843 30.9592C159.353 30.9592 162.447 34.6712 162.447 43.0729L162.439 65.1805ZM154.055 52.5216H147.875C145.126 52.5216 144.374 53.2744 144.374 55.8269C144.374 58.1632 145.126 59.2015 147.745 59.2015C149.963 59.1657 152.136 58.5705 154.063 57.4709L154.055 52.5216Z" fill="black"/>
<path d="M178.662 65.864C174.738 65.7995 170.846 65.1492 167.114 63.9345L168.281 57.5402C171.523 58.4686 174.875 58.9547 178.247 58.9852C181.955 58.9852 182.508 58.1199 182.508 55.6106C182.508 53.5513 182.093 52.513 176.665 51.2064C168.489 49.2077 167.529 47.1483 167.529 40.6848C167.529 33.9444 170.485 30.9852 180.036 30.9852C183.414 30.9883 186.781 31.3802 190.071 32.1533L189.206 38.8245C186.168 38.2632 183.09 37.942 180.001 37.864C176.363 37.864 175.74 38.7293 175.74 40.754C175.74 43.4363 175.948 43.644 180.485 44.8121C189.854 47.2954 190.753 48.5328 190.753 55.377C190.753 61.8752 188.757 65.864 178.662 65.864Z" fill="black"/>
<path d="M215.697 65.1805V41.8183C215.697 40.0272 214.945 39.136 213.018 39.136C210.961 39.136 207.314 40.3733 204.288 41.9567V65.1805H195.905V17.9889L204.288 16.8208V34.2213C208.084 32.2709 212.256 31.1669 216.518 30.9852C222.085 30.9852 224.072 34.9048 224.072 40.8925V65.1805H215.697Z" fill="black"/>
<path d="M230.261 26.9357V17.2361H238.645V26.9357H230.261ZM230.261 65.1805V31.6774H238.645V65.1805H230.261Z" fill="black"/>
<path d="M244.488 31.9543C244.488 23.5612 249.362 18.6811 260.771 18.6811C264.963 18.6802 269.139 19.1886 273.209 20.1953L272.258 27.6885C268.552 26.9855 264.793 26.5947 261.022 26.5204C255.041 26.5204 253.122 28.5884 253.122 33.4425V51.0507C253.122 55.9308 255.049 57.9728 261.022 57.9728C264.793 57.8985 268.552 57.5078 272.258 56.8047L273.217 64.3066C269.148 65.3132 264.972 65.8217 260.78 65.8208C249.371 65.8208 244.496 60.9407 244.496 52.5476L244.488 31.9543Z" fill="black"/>
<path d="M290.408 65.864C278.93 65.864 275.845 59.5389 275.845 52.6601V44.1978C275.845 37.3189 278.939 30.9938 290.408 30.9938C301.878 30.9938 304.972 37.3189 304.972 44.1978V52.6601C304.946 59.5389 301.86 65.864 290.408 65.864ZM290.408 38.1755C285.94 38.1755 284.229 40.1743 284.229 43.9555V52.9369C284.229 56.7182 285.957 58.7169 290.408 58.7169C294.86 58.7169 296.588 56.7182 296.588 52.9369V43.9209C296.571 40.1397 294.851 38.1409 290.408 38.1409V38.1755Z" fill="black"/>
<path d="M327.211 38.6947C324.134 40.0904 321.169 41.722 318.343 43.5748V65.2064H309.959V31.6774H317.038L317.591 35.3894C320.318 33.5408 323.276 32.06 326.39 30.9852L327.211 38.6947Z" fill="black"/>
<path d="M359 54.0358C359 61.4685 355.698 65.864 347.937 65.864C344.933 65.8324 341.94 65.5079 339 64.8949V78.7392L330.616 79.9073V31.6774H337.28L338.144 34.4981C341.199 32.2147 344.911 30.9851 348.723 30.9938C355.456 30.9938 359.026 34.9827 359.026 42.623L359 54.0358ZM339.009 57.8171C341.448 58.3545 343.935 58.6444 346.433 58.6823C349.458 58.6823 350.625 57.2373 350.625 54.2089V42.398C350.625 39.6465 349.596 38.1323 346.502 38.1323C343.727 38.2323 341.075 39.304 339.009 41.1607V57.8171Z" fill="black"/>
<path d="M33.0339 0L0 19.0791V19.0878V64.8949L12.4115 72.068V26.2522L33.0339 14.3288V0Z" fill="black"/>
<path d="M46.2147 0V36.4883H33.0339V22.869L20.6224 30.042V76.7923L33.0339 83.9827V47.5983H46.2147V61.1224L58.6262 53.958V7.17305L46.2147 0Z" fill="black"/>
<path d="M46.2147 84L79.2486 64.9209V64.9036V19.1051L66.8371 11.932V57.7478L46.2147 69.6712V84Z" fill="black"/>
</g>
<defs>
<clipPath id="clip0">
<rect width="359" height="84" fill="white"/>
</clipPath>
</defs>
</svg>
